<?xml version="1.0" encoding="UTF-8" standalone="no"?>
<svg
   xmlns:dc="http://purl.org/dc/elements/1.1/"
   xmlns:cc="http://creativecommons.org/ns#"
   xmlns:rdf="http://www.w3.org/1999/02/22-rdf-syntax-ns#"
   xmlns:svg="http://www.w3.org/2000/svg"
   xmlns="http://www.w3.org/2000/svg"
   xmlns:sodipodi="http://sodipodi.sourceforge.net/DTD/sodipodi-0.dtd"
   xmlns:inkscape="http://www.inkscape.org/namespaces/inkscape"
   width="642.0047mm"
   height="220.87045mm"
   viewBox="0 0 642.0047 220.87045"
   version="1.1"
   id="svg863"
   inkscape:version="1.0.1 (0767f8302a, 2020-10-17)"
   sodipodi:docname="linux.svg">
  <defs
     id="defs857" />
  <sodipodi:namedview
     id="base"
     pagecolor="#ffffff"
     bordercolor="#666666"
     borderopacity="1.0"
     inkscape:pageopacity="0.0"
     inkscape:pageshadow="2"
     inkscape:zoom="0.35"
     inkscape:cx="616.09433"
     inkscape:cy="1014.5358"
     inkscape:document-units="mm"
     inkscape:current-layer="layer1"
     inkscape:document-rotation="0"
     showgrid="false"
     fit-margin-top="0"
     fit-margin-left="0"
     fit-margin-right="0"
     fit-margin-bottom="0"
     inkscape:window-width="1717"
     inkscape:window-height="1038"
     inkscape:window-x="50"
     inkscape:window-y="0"
     inkscape:window-maximized="0" />
  <metadata
     id="metadata860">
    <rdf:RDF>
      <cc:Work
         rdf:about="">
        <dc:format>image/svg+xml</dc:format>
        <dc:type
           rdf:resource="http://purl.org/dc/dcmitype/StillImage" />
        <dc:title></dc:title>
      </cc:Work>
    </rdf:RDF>
  </metadata>
  <g
     inkscape:label="Calque 1"
     inkscape:groupmode="layer"
     id="layer1"
     transform="translate(57.174959,120.26261)">
    <path
       d="M 84.487681,96.541414 H -56.921022 v -5.00668 c 24.776034,-2.50162 27.027153,-4.69097 27.027153,-26.27906 V -80.528299 c 0,-21.588091 -2.501624,-24.089721 -27.28109,-26.279071 v -5.00668 H 24.1673 v 5.00668 c -27.027153,2.18935 -29.782714,4.69098 -29.782714,26.279071 V 66.823904 c 0,20.33557 3.253142,23.77401 23.526938,23.77401 37.538097,0 58.813907,-26.27907 62.320987,-77.58467 h 4.25517 z"
       id="path4"
       style="stroke-width:3.43159" />
    <path
       d="m 151.40699,-82.721081 c -8.25982,0 -15.01661,-8.445127 -15.01661,-18.770759 0,-10.32221 6.76022,-18.77077 15.01661,-18.77077 8.25639,0 15.01318,8.44513 15.01318,18.77077 0.003,10.325632 -6.75679,18.770759 -15.01318,18.770759 z m 20.2738,124.202735 c -9.51235,35.66445 -25.52755,57.25255 -42.05063,57.25255 -14.01116,0 -23.27643,-12.82726 -23.27643,-32.84712 0,-8.13629 1.50303,-16.89712 5.00668,-30.04009 l 12.51498,-48.48827 c 0.24708,-0.93683 1.2491,-4.06643 2.75213,-10.009932 1.50304,-5.318955 2.25455,-9.073107 2.25455,-11.578164 0,-6.255776 -3.00263,-10.322203 -7.5083,-10.322203 -11.51296,0 -22.023899,15.953431 -34.535459,52.554699 l -4.25516,-2.18591 c 7.00729,-23.1529 15.01661,-39.422037 24.024509,-49.431968 5.00669,-5.322385 10.51094,-7.820578 16.77016,-7.820578 14.26509,0 24.27845,13.451809 24.27845,32.222566 0,8.44856 -3.00264,24.71427 -7.2578,40.04315 l -6.25578,22.21265 -4.75617,18.45848 -2.50163,8.76084 c -1.00202,4.06985 -1.75354,8.44512 -1.75354,11.25902 0,6.25921 3.00607,10.32907 7.2578,10.32907 11.76347,0 24.77947,-19.08647 35.0399,-51.93702 z"
       fill="#cc2229"
       id="path6"
       style="stroke-width:3.43159" />
    <path
       d="m 251.14254,-53.624682 c 11.01196,0 22.02389,5.315521 28.02917,13.76408 6.25922,9.073108 7.25781,14.704338 7.25781,41.920226 v 65.38883 c 0,18.45849 3.75415,21.9038 24.02795,24.08972 v 5.00667 h -71.32892 v -5.00667 c 20.52088,-2.18592 24.02454,-5.63123 24.02454,-23.78088 V 3.627864 c 0,-40.671135 -2.25113,-46.614637 -17.76875,-46.614637 -14.26509,0 -27.7821,11.887004 -34.03788,30.029787 -6.00527,17.20596 -7.5083,29.41211 -7.5083,59.75417 v 20.95668 c 0,18.14964 3.50364,21.59496 24.02796,23.78087 v 5.00668 h -71.33235 v -5.00668 c 20.52431,-2.18591 24.02795,-5.63123 24.02795,-23.78087 v -88.215721 c 0,-16.26914 -0.75151,-18.774196 -6.75678,-21.272389 -3.50365,-1.564802 -7.0073,-1.877076 -18.01925,-2.8139 v -5.318953 c 14.5156,-0.312274 35.54091,-1.877076 48.05247,-3.754151 v 45.983224 c 8.00931,-29.092971 25.52753,-45.986656 47.30438,-45.986656 z m 120.55153,3.754152 c 16.51965,-0.312275 36.28556,-1.877076 48.30296,-3.754152 V 67.445024 c 0,18.45848 3.50367,21.9038 24.02795,24.08971 v 5.00668 h -3.50364 l -21.77682,1.25253 a 228.86947,228.86947 0 0 0 -17.76875,1.24567 c -1.00545,0 -2.50505,0.3157 -4.50223,0.63141 v -44.73756 c -5.26063,15.01318 -7.76224,19.71102 -13.76752,27.84044 -8.51032,11.57473 -20.77138,17.833936 -33.28979,17.833936 -11.01196,0 -21.01845,-5.322386 -26.27908,-14.388626 -6.00525,-9.69766 -7.75536,-20.33557 -7.75536,-41.61481 v -65.066261 c 0,-16.26914 -0.99859,-18.774196 -7.01075,-21.272389 -3.75414,-1.252527 -8.76083,-2.192782 -18.76731,-2.8139 v -5.318953 c 15.01317,-0.312274 38.04253,-1.877076 49.05449,-3.754151 V 51.807294 c 0,27.21932 5.50426,39.73088 17.76873,39.73088 14.0146,0 28.78756,-16.58142 35.28697,-40.04659 3.50367,-11.88357 4.75962,-23.77401 4.75962,-41.91679 v -30.03322 c 0,-16.269139 -0.75838,-18.774195 -6.76365,-21.272389 -3.24972,-1.252526 -8.2564,-2.192782 -18.01582,-2.813899 z"
       id="path8"
       style="stroke-width:3.43159" />
    <path
       d="m 557.29814,70.262354 c 10.01336,17.51823 13.26306,20.02672 27.53158,21.27238 v 5.00668 h -68.32626 v -5.00668 c 14.5156,-1.56137 18.52369,-3.43844 18.52369,-9.06967 0,-1.56824 -1.25251,-4.69784 -2.75555,-7.51174 l -4.25517,-7.82058 -22.02391,-37.8538 -16.51963,28.47185 c -6.25235,11.26589 -9.255,18.14279 -9.255,22.52492 0,7.19946 4.24831,9.69765 19.26836,11.25902 v 5.00668 h -57.31089 v -5.00668 c 15.01317,-2.18591 21.01845,-6.25234 32.03041,-21.89693 6.01212,-8.76083 6.76365,-10.01336 17.02408,-27.5316 l 11.01196,-19.39531 -26.27908,-45.986651 c -9.26184,-16.269139 -13.01599,-19.086467 -28.28311,-20.960114 v -5.003247 h 66.82325 v 5.003247 c -12.25762,1.25253 -16.77017,3.44188 -16.77017,8.132855 0,1.252527 0.75838,3.441877 2.00406,5.943502 l 3.761,6.883757 18.76735,32.534841 14.7661,-25.02654 c 4.25516,-7.508301 6.50626,-13.451803 6.50626,-17.830503 0,-6.259211 -4.50223,-8.760834 -18.26974,-10.637912 v -5.003247 h 53.81411 v 5.003247 c -15.77158,2.501625 -22.52493,7.820581 -32.29121,24.401995 l -6.75679,11.25902 -14.01459,24.09315 z"
       id="path10"
       style="stroke-width:3.43159" />
  </g>
</svg>
