<?xml version="1.0" encoding="UTF-8" standalone="no"?>
<svg
   xmlns:dc="http://purl.org/dc/elements/1.1/"
   xmlns:cc="http://creativecommons.org/ns#"
   xmlns:rdf="http://www.w3.org/1999/02/22-rdf-syntax-ns#"
   xmlns:svg="http://www.w3.org/2000/svg"
   xmlns="http://www.w3.org/2000/svg"
   xmlns:sodipodi="http://sodipodi.sourceforge.net/DTD/sodipodi-0.dtd"
   xmlns:inkscape="http://www.inkscape.org/namespaces/inkscape"
   width="512"
   height="512"
   viewBox="0 0 135.46666 135.46667"
   version="1.1"
   id="svg7203"
   inkscape:version="1.0.1 (0767f8302a, 2020-10-17)"
   sodipodi:docname="logowhite.svg">
  <defs
     id="defs7197" />
  <sodipodi:namedview
     id="base"
     pagecolor="#ffffff"
     bordercolor="#666666"
     borderopacity="1.0"
     inkscape:pageopacity="0.0"
     inkscape:pageshadow="2"
     inkscape:zoom="1.0603036"
     inkscape:cx="142.94393"
     inkscape:cy="366.83575"
     inkscape:document-units="mm"
     inkscape:current-layer="layer1"
     inkscape:document-rotation="0"
     showgrid="false"
     units="px"
     inkscape:window-width="1920"
     inkscape:window-height="1080"
     inkscape:window-x="0"
     inkscape:window-y="0"
     inkscape:window-maximized="1" />
  <metadata
     id="metadata7200">
    <rdf:RDF>
      <cc:Work
         rdf:about="">
        <dc:format>image/svg+xml</dc:format>
        <dc:type
           rdf:resource="http://purl.org/dc/dcmitype/StillImage" />
        <dc:title></dc:title>
      </cc:Work>
    </rdf:RDF>
  </metadata>
  <g
     inkscape:label="Calque 1"
     inkscape:groupmode="layer"
     id="layer1">
    <g
       id="g458"
       transform="matrix(1.3554578,0,0,-1.3506512,31.028313,34.444059)">
      <path
         d="M 0,0 C 0.031,-0.09 0.06,-0.181 0.08,-0.272 0.06,-0.181 0.031,-0.09 0,0"
         style="fill:#fed54a;fill-opacity:1;fill-rule:nonzero;stroke:none"
         id="path460" />
    </g>
    <g
       id="g462"
       transform="matrix(1.3554578,0,0,-1.3506512,29.959785,32.806827)">
      <path
         d="M 0,0 C 0.118,-0.123 0.224,-0.245 0.319,-0.367 0.224,-0.245 0.118,-0.123 0,0"
         style="fill:#fed54a;fill-opacity:1;fill-rule:nonzero;stroke:none"
         id="path464" />
    </g>
    <g
       id="g466"
       transform="matrix(1.3554578,0,0,-1.3506512,30.803157,33.936499)">
      <path
         d="M 0,0 C 0.048,-0.09 0.095,-0.181 0.131,-0.272 0.095,-0.181 0.049,-0.09 0,0"
         style="fill:#fed54a;fill-opacity:1;fill-rule:nonzero;stroke:none"
         id="path468" />
    </g>
    <g
       id="g470"
       transform="matrix(1.3554578,0,0,-1.3506512,17.375595,46.891431)">
      <path
         d="M 0,0 C -0.094,0.05 -0.188,0.107 -0.281,0.171 -0.188,0.107 -0.094,0.05 0,0"
         style="fill:#fed54a;fill-opacity:1;fill-rule:nonzero;stroke:none"
         id="path472" />
    </g>
    <g
       id="g478"
       transform="matrix(1.3554578,0,0,-1.3506512,30.47868,33.426374)">
      <path
         d="M 0,0 C 0.067,-0.092 0.133,-0.185 0.188,-0.277 0.133,-0.185 0.068,-0.092 0,0"
         style="fill:#fed54a;fill-opacity:1;fill-rule:nonzero;stroke:none"
         id="path480" />
    </g>
    <g
       id="g482"
       transform="matrix(1.3554578,0,0,-1.3506512,16.417955,46.211353)">
      <path
         d="M 0,0 C 0.113,-0.103 0.227,-0.193 0.34,-0.275 0.227,-0.193 0.113,-0.103 0,0"
         style="fill:#fed54a;fill-opacity:1;fill-rule:nonzero;stroke:none"
         id="path484" />
    </g>
    <g
       id="g486"
       transform="matrix(1.3554578,0,0,-1.3506512,42.709767,70.534945)">
      <path
         d="M 0,0 C -0.072,0.131 -0.148,0.261 -0.217,0.392 -0.148,0.26 -0.072,0.131 0,0"
         style="fill:#f08929;fill-opacity:1;fill-rule:nonzero;stroke:none"
         id="path488" />
    </g>
    <g
       id="g490"
       transform="matrix(1.3554578,0,0,-1.3506512,48.021399,77.53025)">
      <path
         d="M 0,0 C 0.225,-0.223 0.454,-0.437 0.686,-0.648 0.454,-0.437 0.225,-0.223 0,0"
         style="fill:#f08929;fill-opacity:1;fill-rule:nonzero;stroke:none"
         id="path492" />
    </g>
    <g
       id="g494"
       transform="matrix(1.3554578,0,0,-1.3506512,67.360674,60.748538)">
      <path
         d="M 0,0 C 0.243,-0.204 0.475,-0.408 0.688,-0.613 0.474,-0.408 0.243,-0.204 0,0"
         style="fill:#f08929;fill-opacity:1;fill-rule:nonzero;stroke:none"
         id="path496" />
    </g>
    <g
       id="g498"
       transform="matrix(1.3554578,0,0,-1.3506512,66.10526,59.775801)">
      <path
         d="M 0,0 C 0.278,-0.2 0.536,-0.401 0.783,-0.602 0.535,-0.401 0.278,-0.2 0,0"
         style="fill:#f08929;fill-opacity:1;fill-rule:nonzero;stroke:none"
         id="path500" />
    </g>
    <g
       id="g502"
       transform="matrix(1.3554578,0,0,-1.3506512,69.168295,62.486156)">
      <path
         d="M 0,0 C -0.192,0.217 -0.399,0.434 -0.622,0.65 -0.399,0.434 -0.192,0.217 0,0"
         style="fill:#f08929;fill-opacity:1;fill-rule:nonzero;stroke:none"
         id="path504" />
    </g>
    <g
       id="g506"
       transform="matrix(1.3554578,0,0,-1.3506512,69.192578,62.51288)">
      <path
         d="M 0,0 C 0.198,-0.225 0.38,-0.45 0.546,-0.676 0.38,-0.45 0.198,-0.225 0,0"
         style="fill:#f08929;fill-opacity:1;fill-rule:nonzero;stroke:none"
         id="path508" />
    </g>
    <g
       id="g510"
       transform="matrix(1.3554578,0,0,-1.3506512,47.119356,76.611267)">
      <path
         d="M 0,0 C -0.139,0.15 -0.271,0.307 -0.406,0.46 -0.271,0.306 -0.139,0.15 0,0"
         style="fill:#f08929;fill-opacity:1;fill-rule:nonzero;stroke:none"
         id="path512" />
    </g>
    <g
       id="g518"
       transform="matrix(1.3554578,0,0,-1.3506512,44.764099,73.749529)">
      <path
         d="M 0,0 C -0.117,0.16 -0.23,0.322 -0.343,0.484 -0.23,0.321 -0.117,0.16 0,0"
         style="fill:#f08929;fill-opacity:1;fill-rule:nonzero;stroke:none"
         id="path520" />
    </g>
    <g
       id="g522"
       transform="matrix(1.3554578,0,0,-1.3506512,43.700874,72.196144)">
      <path
         d="M 0,0 C -0.099,0.154 -0.197,0.308 -0.292,0.463 -0.197,0.307 -0.099,0.154 0,0"
         style="fill:#f08929;fill-opacity:1;fill-rule:nonzero;stroke:none"
         id="path524" />
    </g>
    <path
       d="m 36.587423,76.426383 c 0.637065,-1.092677 1.358169,-2.173198 2.153822,-3.233459 2.439824,4.27346 5.953171,8.245726 9.791828,10.988898 3.616361,2.585147 7.234078,3.895278 10.754202,3.895278 5.119564,0 9.79996,-2.743172 13.536957,-7.932374 2.916945,-4.051954 4.254782,-8.279492 3.871187,-12.224744 -0.447301,-4.571955 -3.076889,-8.6077 -7.816925,-11.996484 -0.783454,-0.55917 -1.607573,-1.084573 -2.462867,-1.580262 9.061236,-3.827746 14.748737,-5.536319 22.553463,-5.536319 8.683062,0 16.15841,2.88364 19.91981,5.35263 8.38621,5.506605 8.89316,14.801787 6.57126,21.665796 -3.70718,10.959184 -12.22352,20.217898 -18.595529,20.217898 H 38.009298 c -0.855294,-0.302546 -3.586541,-1.476262 -4.806453,-4.470655 -1.463895,-3.596785 -0.294134,-8.83461 3.384578,-15.146203 m 4.622111,-18.879402 c 1.470672,-2.043536 4.4703,-3.168628 8.445858,-3.168628 5.405565,0 11.862966,2.119172 16.449836,5.397202 8.472966,6.057671 6.228328,12.917628 2.853238,17.605738 -1.955925,2.71616 -5.221223,5.955022 -9.671191,5.955022 -2.504886,0 -5.190048,-1.011638 -7.980936,-3.00655 C 47.28063,77.452878 43.666979,72.99708 41.64057,68.411619 39.645336,63.897742 39.488103,59.937633 41.209534,57.546981 M 35.138439,31.945387 c 0.538116,-0.235013 1.122319,-0.361974 1.726853,-0.361974 h 0.01355 c 1.107409,0.0041 2.134846,0.430857 2.892547,1.206131 2.42627,2.477094 0.894603,5.006864 -0.817341,6.692477 -0.452723,0.444364 -0.707549,1.052157 -0.707549,1.686963 0,0.633455 0.254826,1.241249 0.707549,1.685613 l 7.173083,7.057152 c -0.824118,0.132364 -1.61435,0.312001 -2.361207,0.537559 l -9.751164,-9.41674 c 1.819024,-2.563536 2.738025,-5.86993 1.123675,-9.087181 m -8.783367,13.48085 c -1.427297,-1.122391 -2.850528,-0.152624 -3.459128,0.262026 -2.419492,1.650496 -4.447257,2.370393 -6.477733,0.522702 -0.753635,-0.68478 -1.181959,-1.649145 -1.206358,-2.71616 -0.02575,-1.18317 0.44188,-2.343379 1.283619,-3.182134 0.954242,-0.950858 2.270392,-1.385768 3.608229,-1.192625 0.742791,0.106702 1.492359,-0.141818 2.022343,-0.669923 0.531339,-0.529455 0.780743,-1.276365 0.672307,-2.015171 -0.192475,-1.334444 0.243982,-2.645926 1.198224,-3.596785 0.822763,-0.819845 1.920684,-1.253404 3.078245,-1.254754 1.107409,0.01081 2.132135,0.444364 2.884414,1.223689 1.234822,1.276366 1.538445,2.505458 0.984063,3.987123 -0.482543,1.288521 -1.45034,2.317717 -1.843423,2.699952 -0.460856,0.447065 -0.719748,1.060261 -0.718393,1.700469 0,0.640209 0.261604,1.253405 0.722459,1.69912 l 10.195754,9.846247 c -0.748213,0.599689 -1.406965,1.280417 -1.955926,2.042185 -0.218228,0.302545 -0.412059,0.619948 -0.596401,0.942754 L 26.559746,45.607224 c -0.06506,-0.06348 -0.132835,-0.12426 -0.204674,-0.180987 M 118.94504,103.40969 H 19.707907 c -0.72517,0 -1.31615,-0.58888 -1.31615,-1.31283 0,-0.72395 0.59098,-1.31283 1.31615,-1.31283 h 99.237133 c 0.72517,0 1.31615,0.58888 1.31615,1.31283 0,0.72395 -0.59098,1.31283 -1.31615,1.31283 m 0,-7.366449 h -11.19337 c 5.32017,-4.530084 9.84469,-11.689886 12.21674,-18.703818 3.62992,-10.728222 0.30769,-21.380808 -8.46212,-27.138634 -4.51774,-2.96603 -12.810435,-6.134658 -22.5372,-6.134658 -9.706434,0 -16.527097,2.437925 -28.339912,7.605517 -2.564526,-0.918443 -5.22529,-1.5546 -7.81557,-1.84499 l -8.955509,-8.808947 c 2.275813,-3.234809 3.135174,-7.641984 -0.681796,-11.539964 -1.656369,-1.692366 -3.888808,-2.628367 -6.283902,-2.63512 h -0.02575 c -1.753962,0 -3.475393,0.521351 -4.935222,1.464106 -1.40832,-0.936002 -3.06469,-1.447898 -4.811875,-1.464106 -0.02846,0 -0.05557,0 -0.08268,0 -2.385605,0 -4.715637,0.960313 -6.404538,2.643224 -1.356813,1.352002 -2.229728,3.102446 -2.523862,4.959591 -1.863755,0.291741 -3.620428,1.162911 -4.977241,2.514913 -1.756674,1.750444 -2.731248,4.170811 -2.675674,6.642503 0.05422,2.373094 1.031503,4.54224 2.752935,6.108995 3.209724,2.921458 7.010428,3.109199 11.312651,0.565923 l 10.758268,10.683651 c -0.120636,2.266392 0.288713,4.766448 1.2294,7.415075 -1.546577,1.82473 -2.90339,3.726447 -4.035197,5.668683 -4.535362,7.783803 -5.760696,14.310149 -3.642116,19.398052 0.410704,0.988677 0.923067,1.849042 1.485582,2.600004 H 19.707907 c -3.349336,0 -6.075162,2.71616 -6.075162,6.053619 0,3.33881 2.725826,6.05362 6.075162,6.05362 h 99.237133 c 3.34934,0 6.07516,-2.71481 6.07516,-6.05362 0,-3.337459 -2.72582,-6.053619 -6.07516,-6.053619"
       style="fill:#ffffff;fill-opacity:1;fill-rule:nonzero;stroke:none;stroke-width:1.35305"
       id="path576" />
    <g
       id="g526"
       transform="matrix(1.3554578,0,0,-1.3506512,45.905514,75.221594)">
      <path
         d="M 0,0 C -0.13,0.158 -0.256,0.321 -0.382,0.483 -0.256,0.321 -0.131,0.159 0,0"
         style="fill:#f08929;fill-opacity:1;fill-rule:nonzero;stroke:none"
         id="path528" />
    </g>
    <g
       id="g530"
       transform="matrix(1.3554578,0,0,-1.3506512,33.805639,92.725766)">
      <path
         d="M 0,0 C -0.034,0.054 -0.067,0.108 -0.099,0.164 -0.067,0.108 -0.034,0.054 0,0"
         style="fill:#f08929;fill-opacity:1;fill-rule:nonzero;stroke:none"
         id="path532" />
    </g>
    <g
       id="g534"
       transform="matrix(1.3554578,0,0,-1.3506512,111.97015,56.710112)">
      <path
         d="M 0,0 C -0.113,0.117 -0.226,0.235 -0.346,0.35 -0.226,0.235 -0.113,0.117 0,0"
         style="fill:#f08929;fill-opacity:1;fill-rule:nonzero;stroke:none"
         id="path536" />
    </g>
    <g
       id="g538"
       transform="matrix(1.3554578,0,0,-1.3506512,110.2738,55.165495)">
      <path
         d="M 0,0 C 0.112,-0.089 0.215,-0.184 0.322,-0.275 0.214,-0.184 0.113,-0.089 0,0"
         style="fill:#f08929;fill-opacity:1;fill-rule:nonzero;stroke:none"
         id="path540" />
    </g>
    <g
       id="g542"
       transform="matrix(1.3554578,0,0,-1.3506512,34.360843,93.505081)">
      <path
         d="M 0,0 C -0.013,0.016 -0.024,0.034 -0.037,0.049 -0.024,0.034 -0.013,0.016 0,0"
         style="fill:#f08929;fill-opacity:1;fill-rule:nonzero;stroke:none"
         id="path544" />
    </g>
    <g
       id="g546"
       transform="matrix(1.3554578,0,0,-1.3506512,112.58187,57.371123)">
      <path
         d="M 0,0 C 0.111,-0.128 0.219,-0.258 0.324,-0.389 0.219,-0.258 0.111,-0.128 0,0"
         style="fill:#f08929;fill-opacity:1;fill-rule:nonzero;stroke:none"
         id="path548" />
    </g>
    <g
       id="g550"
       transform="matrix(1.3554578,0,0,-1.3506512,35.772137,94.837363)">
      <path
         d="M 0,0 C -0.026,0.019 -0.052,0.043 -0.078,0.063 -0.052,0.042 -0.026,0.02 0,0"
         style="fill:#f08929;fill-opacity:1;fill-rule:nonzero;stroke:none"
         id="path552" />
    </g>
    <g
       id="g554"
       transform="matrix(1.3554578,0,0,-1.3506512,69.688804,56.526683)">
      <path
         d="M 0,0 C -0.194,0.15 -0.393,0.299 -0.598,0.446 -0.393,0.299 -0.194,0.15 0,0"
         style="fill:#f08929;fill-opacity:1;fill-rule:nonzero;stroke:none"
         id="path556" />
    </g>
    <g
       id="g558"
       transform="matrix(1.3554578,0,0,-1.3506512,40.232943,75.553305)">
      <path
         d="M 0,0 C -0.089,0.132 -0.181,0.262 -0.268,0.395 -0.181,0.262 -0.09,0.132 0,0"
         style="fill:#f08929;fill-opacity:1;fill-rule:nonzero;stroke:none"
         id="path560" />
    </g>
    <g
       id="g566"
       transform="matrix(1.3554578,0,0,-1.3506512,34.967956,94.152462)">
      <path
         d="M 0,0 C 0.042,-0.041 0.083,-0.079 0.126,-0.117 0.084,-0.079 0.042,-0.04 0,0"
         style="fill:#f08929;fill-opacity:1;fill-rule:nonzero;stroke:none"
         id="path568" />
    </g>
    <g
       id="g570"
       transform="matrix(1.3554578,0,0,-1.3506512,36.551652,95.350628)">
      <path
         d="M 0,0 C -0.045,0.026 -0.09,0.053 -0.136,0.082 -0.089,0.053 -0.045,0.027 0,0"
         style="fill:#f08929;fill-opacity:1;fill-rule:nonzero;stroke:none"
         id="path572" />
    </g>
    <g
       id="g578"
       transform="matrix(1.3554578,0,0,-1.3506512,94.938409,84.292814)"
       style="fill:#ffffff;fill-opacity:1">
      <path
         d="M 0,0 C 0.461,0 0.915,0.187 1.24,0.513 1.568,0.84 1.755,1.292 1.755,1.755 1.755,2.216 1.568,2.668 1.24,2.995 0.915,3.321 0.461,3.508 0,3.508 -0.463,3.508 -0.915,3.321 -1.24,2.995 -1.568,2.668 -1.755,2.216 -1.755,1.755 -1.755,1.292 -1.568,0.84 -1.24,0.513 -0.915,0.187 -0.463,0 0,0"
         style="fill:#ffffff;fill-opacity:1;fill-rule:nonzero;stroke:none"
         id="path580" />
    </g>
    <g
       id="g582"
       transform="matrix(1.3554578,0,0,-1.3506512,104.5467,82.592372)"
       style="fill:#ffffff;fill-opacity:1">
      <path
         d="M 0,0 C 0.461,0 0.915,0.187 1.24,0.515 1.568,0.84 1.755,1.294 1.755,1.755 1.755,2.216 1.568,2.67 1.24,2.995 0.915,3.323 0.463,3.51 0,3.51 -0.461,3.51 -0.915,3.323 -1.24,2.995 -1.568,2.67 -1.755,2.216 -1.755,1.755 -1.755,1.294 -1.568,0.84 -1.24,0.515 -0.913,0.187 -0.461,0 0,0"
         style="fill:#ffffff;fill-opacity:1;fill-rule:nonzero;stroke:none"
         id="path584" />
    </g>
    <g
       id="g586"
       transform="matrix(1.3554578,0,0,-1.3506512,98.630804,77.272699)"
       style="stroke:none;stroke-opacity:1;fill:#ffffff;fill-opacity:1">
      <path
         d="M 0,0 C 0.461,0 0.915,0.187 1.24,0.515 1.568,0.84 1.755,1.292 1.755,1.755 1.755,2.219 1.568,2.67 1.24,2.995 0.915,3.323 0.461,3.51 0,3.51 -0.461,3.51 -0.915,3.323 -1.241,2.995 -1.568,2.67 -1.755,2.219 -1.755,1.755 -1.755,1.292 -1.568,0.84 -1.241,0.515 -0.915,0.187 -0.461,0 0,0"
         style="fill:#ffffff;fill-opacity:1;fill-rule:nonzero;stroke:none;stroke-opacity:1"
         id="path588" />
    </g>
  </g>
</svg>
